<?xml version="1.0" encoding="UTF-8"?>
<svg id="Layer_1" data-name="Layer 1" xmlns="http://www.w3.org/2000/svg" xmlns:xlink="http://www.w3.org/1999/xlink" viewBox="0 0 140 40">
  <defs>
    <style>
      .cls-1 {
        clip-path: url(#clippath);
      }

      .cls-2, .cls-3 {
        fill: none;
      }

      .cls-2, .cls-4, .cls-5, .cls-6, .cls-7 {
        stroke-width: 0px;
      }

      .cls-3 {
        stroke: #1f357c;
        stroke-miterlimit: 10;
        stroke-width: 2px;
      }

      .cls-8 {
        font-family: VT323-Regular, VT323;
        font-size: 27px;
      }

      .cls-4 {
        fill: #4961ba;
      }

      .cls-5 {
        fill: #368ce5;
      }

      .cls-6 {
        fill: #3f7bff;
      }

      .cls-7 {
        fill: #b0c9fc;
      }
    </style>
    <clipPath id="clippath">
      <rect class="cls-2" x="162" y="-190" width="140" height="35"/>
    </clipPath>
  </defs>
  <g class="cls-1">
    <image width="2206" height="1152" transform="translate(-92.8 -250.2) scale(.27)" xlink:href="../../../../../../Screenshot 2024-02-14 at 22.34.06.png"/>
  </g>
  <polyline class="cls-5" points="61.37 .97 132.79 .97 132.79 5.29 136.76 5.29 136.76 9.95 140.37 9.95 140.37 29.97 136.76 29.97 136.76 34.63 132.79 34.63 132.79 38.95 61.37 38.95 78.98 38.95 7.92 38.95 7.92 34.63 3.97 34.63 3.97 29.97 .37 29.97 .37 9.95 3.97 9.95 3.97 5.29 7.92 5.29 7.92 .97 78.98 .97"/>
  <rect class="cls-4" x="4.6" y="6.32" width="3.95" height="4.68"/>
  <polygon class="cls-4" points="-.4 10.32 -.4 30 3.6 30 3.6 34.65 7.55 34.65 7.55 38.97 132.41 38.97 132.41 34.65 136.39 34.65 136.39 30 140 30 140 9.97 136.39 9.97 136.39 5.32 132.41 5.32 132.41 1 123.22 1 123.22 6 130 6 130 26 125 26 125 32 7.55 32 7.55 26.11 3.6 26.11 3.6 10.13 -.4 10.32"/>
  <polygon class="cls-6" points="6.55 6.32 123 6 123 2 6.55 2 6.55 6.32"/>
  <polyline class="cls-3" points="61 1 132.41 1 132.41 5.32 136.39 5.32 136.39 9.97 140 9.97 140 30 136.39 30 136.39 34.65 132.41 34.65 132.41 38.97 61 38.97 78.61 38.97 7.55 38.97 7.55 34.65 3.6 34.65 3.6 30 0 30 0 9.97 3.6 9.97 3.6 5.32 7.55 5.32 7.55 1 78.61 1"/>
  <text class="cls-8" transform="translate(24.97 27.25)"><tspan x="0" y="0">PREVIOUS</tspan></text>
  <rect class="cls-7" x="21" y="2" width="12" height="4"/>
  <rect class="cls-7" x="75" y="2" width="6" height="4"/>
  <rect class="cls-7" x="49" y="2" width="6" height="4"/>
  <rect class="cls-7" x="93" y="2" width="3" height="4"/>
  <rect class="cls-7" x="108" y="2" width="3" height="4" transform="translate(219 8) rotate(180)"/>
</svg>