<?xml version="1.0" encoding="UTF-8"?>
<svg id="Layer_1" data-name="Layer 1" xmlns="http://www.w3.org/2000/svg" xmlns:xlink="http://www.w3.org/1999/xlink" viewBox="0 0 140 40">
  <defs>
    <style>
      .cls-1 {
        clip-path: url(#clippath);
      }

      .cls-2, .cls-3 {
        fill: none;
      }

      .cls-2, .cls-4, .cls-5, .cls-6, .cls-7, .cls-8 {
        stroke-width: 0px;
      }

      .cls-3 {
        stroke: #1f357c;
        stroke-miterlimit: 10;
        stroke-width: 2px;
      }

      .cls-5 {
        fill: #4961ba;
      }

      .cls-6 {
        fill: #368ce5;
      }

      .cls-7 {
        fill: #3f7bff;
      }

      .cls-8 {
        fill: #b0c9fc;
      }
    </style>
    <clipPath id="clippath">
      <rect class="cls-2" x="160" y="-136" width="140" height="35"/>
    </clipPath>
  </defs>
  <g class="cls-1">
    <image width="2206" height="1152" transform="translate(-94.8 -196.2) scale(.27)" xlink:href="../../../../../../../Screenshot 2024-02-14 at 22.34.06.png"/>
  </g>
  <polyline class="cls-6" points="61.37 .97 132.79 .97 132.79 5.29 136.76 5.29 136.76 9.95 140.37 9.95 140.37 29.97 136.76 29.97 136.76 34.63 132.79 34.63 132.79 38.95 61.37 38.95 78.98 38.95 7.92 38.95 7.92 34.63 3.97 34.63 3.97 29.97 .37 29.97 .37 9.95 3.97 9.95 3.97 5.29 7.92 5.29 7.92 .97 78.98 .97"/>
  <rect class="cls-5" x="4.6" y="6.32" width="3.95" height="4.68"/>
  <polygon class="cls-5" points="-.4 10.32 -.4 30 3.6 30 3.6 34.65 7.55 34.65 7.55 38.97 132.41 38.97 132.41 34.65 136.39 34.65 136.39 30 140 30 140 9.97 136.39 9.97 136.39 5.32 132.41 5.32 132.41 1 123.22 1 123.22 6 130 6 130 26 125 26 125 32 7.55 32 7.55 26.11 3.6 26.11 3.6 10.13 -.4 10.32"/>
  <polygon class="cls-7" points="6.55 6.32 123 6 123 2 6.55 2 6.55 6.32"/>
  <polyline class="cls-3" points="61 1 132.41 1 132.41 5.32 136.39 5.32 136.39 9.97 140 9.97 140 30 136.39 30 136.39 34.65 132.41 34.65 132.41 38.97 61 38.97 78.61 38.97 7.55 38.97 7.55 34.65 3.6 34.65 3.6 30 0 30 0 9.97 3.6 9.97 3.6 5.32 7.55 5.32 7.55 1 78.61 1"/>
  <g>
    <path class="cls-4" d="M34.69,16.45c.07.29.11.65.11,1.08s-.04.77-.11,1.08h-1.08c.07.29.11.65.11,1.08s-.04.77-.11,1.08h-5.4c.07.29.11.65.11,1.08s-.04.77-.11,1.08c.07.29.11.65.11,1.08s-.04.77-.11,1.08c.07.29.11.65.11,1.08s-.04.77-.11,1.08h-2.16c-.07-.31-.11-.67-.11-1.08s.04-.79.11-1.08c-.07-.31-.11-.67-.11-1.08s.04-.79.11-1.08c-.07-.31-.11-.67-.11-1.08s.04-.79.11-1.08c-.07-.31-.11-.67-.11-1.08s.04-.79.11-1.08c-.07-.31-.11-.67-.11-1.08s.04-.79.11-1.08c-.07-.31-.11-.67-.11-1.08s.04-.79.11-1.08c-.07-.31-.11-.67-.11-1.08s.04-.79.11-1.08h7.56c.07.29.11.65.11,1.08s-.04.77-.11,1.08h1.08c.07.29.11.65.11,1.08s-.04.77-.11,1.08ZM32.42,17.53c0-.43.04-.79.11-1.08-.07-.31-.11-.67-.11-1.08s.04-.79.11-1.08h-4.32c.07.29.11.65.11,1.08s-.04.77-.11,1.08c.07.29.11.65.11,1.08s-.04.77-.11,1.08h4.32c-.07-.31-.11-.67-.11-1.08Z"/>
    <path class="cls-4" d="M45.49,25.09c.07.29.11.65.11,1.08s-.04.77-.11,1.08h-2.16c-.07-.31-.11-.67-.11-1.08s.04-.79.11-1.08h-.81c-.07-.31-.11-.67-.11-1.08s.04-.79.11-1.08h-.81c-.07-.31-.11-.67-.11-1.08s.04-.79.11-1.08h-2.7c.07.29.11.65.11,1.08s-.04.77-.11,1.08c.07.29.11.65.11,1.08s-.04.77-.11,1.08c.07.29.11.65.11,1.08s-.04.77-.11,1.08h-2.16c-.07-.31-.11-.67-.11-1.08s.04-.79.11-1.08c-.07-.31-.11-.67-.11-1.08s.04-.79.11-1.08c-.07-.31-.11-.67-.11-1.08s.04-.79.11-1.08c-.07-.31-.11-.67-.11-1.08s.04-.79.11-1.08c-.07-.31-.11-.67-.11-1.08s.04-.79.11-1.08c-.07-.31-.11-.67-.11-1.08s.04-.79.11-1.08c-.07-.31-.11-.67-.11-1.08s.04-.79.11-1.08h7.56c.07.29.11.65.11,1.08s-.04.77-.11,1.08h1.08c.07.29.11.65.11,1.08s-.04.77-.11,1.08h-.54c.07.29.11.65.11,1.08s-.04.77-.11,1.08h-1.62c.07.29.11.65.11,1.08s-.04.77-.11,1.08h.54c.07.29.11.65.11,1.08s-.04.77-.11,1.08h.81c.07.29.11.65.11,1.08s-.04.77-.11,1.08h.81ZM42.68,17.53c0-.43.04-.79.11-1.08-.07-.31-.11-.67-.11-1.08s.04-.79.11-1.08h-3.78c.07.29.11.65.11,1.08s-.04.77-.11,1.08c.07.29.11.65.11,1.08s-.04.77-.11,1.08h3.78c-.07-.31-.11-.67-.11-1.08Z"/>
    <path class="cls-4" d="M50.89,20.77c.07.29.11.65.11,1.08s-.04.77-.11,1.08c.07.29.11.65.11,1.08s-.04.77-.11,1.08h4.32c.07.29.11.65.11,1.08s-.04.77-.11,1.08h-6.48c-.07-.31-.11-.67-.11-1.08s.04-.79.11-1.08c-.07-.31-.11-.67-.11-1.08s.04-.79.11-1.08c-.07-.31-.11-.67-.11-1.08s.04-.79.11-1.08c-.07-.31-.11-.67-.11-1.08s.04-.79.11-1.08c-.07-.31-.11-.67-.11-1.08s.04-.79.11-1.08c-.07-.31-.11-.67-.11-1.08s.04-.79.11-1.08c-.07-.31-.11-.67-.11-1.08s.04-.79.11-1.08h6.48c.07.29.11.65.11,1.08s-.04.77-.11,1.08h-4.32c.07.29.11.65.11,1.08s-.04.77-.11,1.08c.07.29.11.65.11,1.08s-.04.77-.11,1.08h4.32c.07.29.11.65.11,1.08s-.04.77-.11,1.08h-4.32Z"/>
    <path class="cls-4" d="M67.2,15.37c0,.41-.04.77-.11,1.08.07.29.11.65.11,1.08s-.04.77-.11,1.08h-.81c.07.29.11.65.11,1.08s-.04.77-.11,1.08h-.81c.07.29.11.65.11,1.08s-.04.77-.11,1.08h-.54c.07.29.11.65.11,1.08s-.04.77-.11,1.08h-1.08c.07.29.11.65.11,1.08s-.04.77-.11,1.08h-2.16c-.07-.31-.11-.67-.11-1.08s.04-.79.11-1.08h-1.08c-.07-.31-.11-.67-.11-1.08s.04-.79.11-1.08h-.54c-.07-.31-.11-.67-.11-1.08s.04-.79.11-1.08h-.81c-.07-.31-.11-.67-.11-1.08s.04-.79.11-1.08h-.81c-.07-.31-.11-.67-.11-1.08s.04-.79.11-1.08c-.07-.31-.11-.67-.11-1.08s.04-.79.11-1.08c-.07-.31-.11-.67-.11-1.08s.04-.79.11-1.08h2.16c.07.29.11.65.11,1.08s-.04.77-.11,1.08c.07.29.11.65.11,1.08s-.04.77-.11,1.08c.07.29.11.65.11,1.08s-.04.77-.11,1.08h.81c.07.29.11.65.11,1.08s-.04.77-.11,1.08h.81c.07.29.11.65.11,1.08s-.04.77-.11,1.08h1.08c-.07-.31-.11-.67-.11-1.08s.04-.79.11-1.08h.81c-.07-.31-.11-.67-.11-1.08s.04-.79.11-1.08h.81c-.07-.31-.11-.67-.11-1.08s.04-.79.11-1.08c-.07-.31-.11-.67-.11-1.08s.04-.79.11-1.08c-.07-.31-.11-.67-.11-1.08s.04-.79.11-1.08h2.16c.07.29.11.65.11,1.08s-.04.77-.11,1.08c.07.29.11.65.11,1.08Z"/>
    <path class="cls-4" d="M76.27,25.09c.07.29.11.65.11,1.08s-.04.77-.11,1.08h-5.4c-.07-.31-.11-.67-.11-1.08s.04-.79.11-1.08h1.62c-.07-.31-.11-.67-.11-1.08s.04-.79.11-1.08c-.07-.31-.11-.67-.11-1.08s.04-.79.11-1.08c-.07-.31-.11-.67-.11-1.08s.04-.79.11-1.08c-.07-.31-.11-.67-.11-1.08s.04-.79.11-1.08c-.07-.31-.11-.67-.11-1.08s.04-.79.11-1.08h-1.62c-.07-.31-.11-.67-.11-1.08s.04-.79.11-1.08h5.4c.07.29.11.65.11,1.08s-.04.77-.11,1.08h-1.62c.07.29.11.65.11,1.08s-.04.77-.11,1.08c.07.29.11.65.11,1.08s-.04.77-.11,1.08c.07.29.11.65.11,1.08s-.04.77-.11,1.08c.07.29.11.65.11,1.08s-.04.77-.11,1.08c.07.29.11.65.11,1.08s-.04.77-.11,1.08h1.62Z"/>
    <path class="cls-4" d="M88.8,19.69c0,.41-.04.77-.11,1.08.07.29.11.65.11,1.08s-.04.77-.11,1.08h-.81c.07.29.11.65.11,1.08s-.04.77-.11,1.08h-1.35c.07.29.11.65.11,1.08s-.04.77-.11,1.08h-4.32c-.07-.31-.11-.67-.11-1.08s.04-.79.11-1.08h-1.35c-.07-.31-.11-.67-.11-1.08s.04-.79.11-1.08h-.81c-.07-.31-.11-.67-.11-1.08s.04-.79.11-1.08c-.07-.31-.11-.67-.11-1.08s.04-.79.11-1.08c-.07-.31-.11-.67-.11-1.08s.04-.79.11-1.08h.81c-.07-.31-.11-.67-.11-1.08s.04-.79.11-1.08h1.35c-.07-.31-.11-.67-.11-1.08s.04-.79.11-1.08h4.32c.07.29.11.65.11,1.08s-.04.77-.11,1.08h1.35c.07.29.11.65.11,1.08s-.04.77-.11,1.08h.81c.07.29.11.65.11,1.08s-.04.77-.11,1.08c.07.29.11.65.11,1.08ZM86.42,21.85c0-.43.04-.79.11-1.08-.07-.31-.11-.67-.11-1.08s.04-.79.11-1.08c-.07-.31-.11-.67-.11-1.08s.04-.79.11-1.08h-.81c-.07-.31-.11-.67-.11-1.08s.04-.79.11-1.08h-2.7c.07.29.11.65.11,1.08s-.04.77-.11,1.08h-.81c.07.29.11.65.11,1.08s-.04.77-.11,1.08c.07.29.11.65.11,1.08s-.04.77-.11,1.08c.07.29.11.65.11,1.08s-.04.77-.11,1.08h.81c.07.29.11.65.11,1.08s-.04.77-.11,1.08h2.7c-.07-.31-.11-.67-.11-1.08s.04-.79.11-1.08h.81c-.07-.31-.11-.67-.11-1.08Z"/>
    <path class="cls-4" d="M99.6,15.37c0,.41-.04.77-.11,1.08.07.29.11.65.11,1.08s-.04.77-.11,1.08c.07.29.11.65.11,1.08s-.04.77-.11,1.08c.07.29.11.65.11,1.08s-.04.77-.11,1.08c.07.29.11.65.11,1.08s-.04.77-.11,1.08h-1.08c.07.29.11.65.11,1.08s-.04.77-.11,1.08h-6.48c-.07-.31-.11-.67-.11-1.08s.04-.79.11-1.08h-1.08c-.07-.31-.11-.67-.11-1.08s.04-.79.11-1.08c-.07-.31-.11-.67-.11-1.08s.04-.79.11-1.08c-.07-.31-.11-.67-.11-1.08s.04-.79.11-1.08c-.07-.31-.11-.67-.11-1.08s.04-.79.11-1.08c-.07-.31-.11-.67-.11-1.08s.04-.79.11-1.08c-.07-.31-.11-.67-.11-1.08s.04-.79.11-1.08h2.16c.07.29.11.65.11,1.08s-.04.77-.11,1.08c.07.29.11.65.11,1.08s-.04.77-.11,1.08c.07.29.11.65.11,1.08s-.04.77-.11,1.08c.07.29.11.65.11,1.08s-.04.77-.11,1.08c.07.29.11.65.11,1.08s-.04.77-.11,1.08c.07.29.11.65.11,1.08s-.04.77-.11,1.08h4.32c-.07-.31-.11-.67-.11-1.08s.04-.79.11-1.08c-.07-.31-.11-.67-.11-1.08s.04-.79.11-1.08c-.07-.31-.11-.67-.11-1.08s.04-.79.11-1.08c-.07-.31-.11-.67-.11-1.08s.04-.79.11-1.08c-.07-.31-.11-.67-.11-1.08s.04-.79.11-1.08c-.07-.31-.11-.67-.11-1.08s.04-.79.11-1.08h2.16c.07.29.11.65.11,1.08s-.04.77-.11,1.08c.07.29.11.65.11,1.08Z"/>
    <path class="cls-4" d="M110.4,21.85c0,.41-.04.77-.11,1.08.07.29.11.65.11,1.08s-.04.77-.11,1.08h-1.08c.07.29.11.65.11,1.08s-.04.77-.11,1.08h-6.48c-.07-.31-.11-.67-.11-1.08s.04-.79.11-1.08h-1.08c-.07-.31-.11-.67-.11-1.08s.04-.79.11-1.08h2.16c.07.29.11.65.11,1.08s-.04.77-.11,1.08h4.32c-.07-.31-.11-.67-.11-1.08s.04-.79.11-1.08c-.07-.31-.11-.67-.11-1.08s.04-.79.11-1.08h-5.4c-.07-.31-.11-.67-.11-1.08s.04-.79.11-1.08h-1.08c-.07-.31-.11-.67-.11-1.08s.04-.79.11-1.08c-.07-.31-.11-.67-.11-1.08s.04-.79.11-1.08h1.08c-.07-.31-.11-.67-.11-1.08s.04-.79.11-1.08h6.48c.07.29.11.65.11,1.08s-.04.77-.11,1.08h1.08c.07.29.11.65.11,1.08s-.04.77-.11,1.08h-2.16c-.07-.31-.11-.67-.11-1.08s.04-.79.11-1.08h-4.32c.07.29.11.65.11,1.08s-.04.77-.11,1.08c.07.29.11.65.11,1.08s-.04.77-.11,1.08h5.4c.07.29.11.65.11,1.08s-.04.77-.11,1.08h1.08c.07.29.11.65.11,1.08Z"/>
  </g>
  <rect class="cls-8" x="21" y="2" width="12" height="4"/>
  <rect class="cls-8" x="75" y="2" width="6" height="4"/>
  <rect class="cls-8" x="49" y="2" width="6" height="4"/>
  <rect class="cls-8" x="93" y="2" width="3" height="4"/>
  <rect class="cls-8" x="108" y="2" width="3" height="4" transform="translate(219 8) rotate(180)"/>
</svg>